name rise42.5664peak47.7979fall81.9185.mot
datacolumns 19
datarows 32
range 14.88827300000000 14.93993900000000
endheader
time	ground_force1_vx	ground_force1_vy	ground_force1_vz	ground_force1_px	ground_force1_py	ground_force1_pz	ground_force2_vx	ground_force2_vy	ground_force2_vz	ground_force2_px	ground_force2_py	ground_force2_pz	ground_torque1_x	ground_torque1_y	ground_torque1_z	ground_torque2_x	ground_torque2_y	ground_torque2_z	
14.88827300000000	-4.31154300000000	43.46386300000000	-10.07964500000000	0.28189400000000	0.00000000000000	0.10014300000000	-43.73169400000000	784.66799200000003	-55.66963700000000	0.10166900000000	0.00000000000000	-0.07881400000000	0.00000000000000	-6.18685300000000	0.00000000000000	0.00000000000000	-17.16532100000000	0.00000000000000	
14.88993900000000	-4.63781000000000	51.04688300000000	-11.30420400000000	0.28707600000000	0.00000000000000	0.10118500000000	-44.08165400000000	781.76970200000005	-55.35447700000000	0.10104100000000	0.00000000000000	-0.07870600000000	0.00000000000000	-7.02624000000000	0.00000000000000	0.00000000000000	-17.07326000000000	0.00000000000000	
14.89160900000000	-4.85535600000000	58.75127000000000	-12.40558900000000	0.29172700000000	0.00000000000000	0.10212500000000	-44.44309700000000	778.73632599999996	-55.00895300000000	0.10041600000000	0.00000000000000	-0.07859300000000	0.00000000000000	-7.80561500000000	0.00000000000000	0.00000000000000	-16.98092000000000	0.00000000000000	
14.89328300000000	-4.95113000000000	66.47929600000001	-13.35691200000000	0.29593500000000	0.00000000000000	0.10298000000000	-44.81573400000000	775.56631900000002	-54.63302200000000	0.09979600000000	0.00000000000000	-0.07847500000000	0.00000000000000	-8.50683600000000	0.00000000000000	0.00000000000000	-16.88833600000000	0.00000000000000	
14.89494100000000	-4.91748400000000	74.15615900000000	-14.14049900000000	0.29977000000000	0.00000000000000	0.10376300000000	-45.19920200000000	772.25812299999996	-54.22670600000000	0.09917900000000	0.00000000000000	-0.07835200000000	0.00000000000000	-9.11734500000000	0.00000000000000	0.00000000000000	-16.79553700000000	0.00000000000000	
14.89660900000000	-4.75204900000000	81.73238400000000	-14.74797700000000	0.30328600000000	0.00000000000000	0.10448500000000	-45.59306700000000	768.81017499999996	-53.79009300000000	0.09856800000000	0.00000000000000	-0.07822300000000	0.00000000000000	-9.63036600000000	0.00000000000000	0.00000000000000	-16.70253800000000	0.00000000000000	
14.89827900000000	-4.45720000000000	89.18373300000000	-15.17959300000000	0.30652800000000	0.00000000000000	0.10515300000000	-45.99681700000000	765.22090600000001	-53.32333600000000	0.09796300000000	0.00000000000000	-0.07809000000000	0.00000000000000	-10.04458800000000	0.00000000000000	0.00000000000000	-16.60934600000000	0.00000000000000	
14.89994700000000	-4.03923700000000	96.50905299999999	-15.44294500000000	0.30953300000000	0.00000000000000	0.10577600000000	-46.40986900000000	761.48874400000000	-52.82665300000000	0.09736400000000	0.00000000000000	-0.07795200000000	0.00000000000000	-10.36346500000000	0.00000000000000	0.00000000000000	-16.51595700000000	0.00000000000000	
14.90161100000000	-3.50738300000000	103.72659600000000	-15.55133100000000	0.31233100000000	0.00000000000000	0.10635900000000	-46.83156200000000	757.61211800000001	-52.30032900000000	0.09677100000000	0.00000000000000	-0.07780800000000	0.00000000000000	-10.59422700000000	0.00000000000000	0.00000000000000	-16.42235500000000	0.00000000000000	
14.90327100000000	-2.87272700000000	110.86937500000001	-15.52191100000000	0.31494500000000	0.00000000000000	0.10690700000000	-47.26116300000000	753.58946200000003	-51.74471400000000	0.09618700000000	0.00000000000000	-0.07765900000000	0.00000000000000	-10.74676700000000	0.00000000000000	0.00000000000000	-16.32851500000000	0.00000000000000	
14.90493900000000	-2.14719500000000	117.98012500000000	-15.37388400000000	0.31739800000000	0.00000000000000	0.10742400000000	-47.69786400000000	749.41922099999999	-51.16022100000000	0.09561000000000	0.00000000000000	-0.07750400000000	0.00000000000000	-10.83248800000000	0.00000000000000	0.00000000000000	-16.23439800000000	0.00000000000000	
14.90660800000000	-1.34264700000000	125.10633400000000	-15.12681100000000	0.31970600000000	0.00000000000000	0.10791200000000	-48.14078200000000	745.09985500000005	-50.54732900000000	0.09504100000000	0.00000000000000	-0.07734500000000	0.00000000000000	-10.86323400000000	0.00000000000000	0.00000000000000	-16.13995800000000	0.00000000000000	
14.90827500000000	-0.47012400000000	132.29572999999999	-14.79919800000000	0.32188300000000	0.00000000000000	0.10837700000000	-48.58896400000000	740.62984600000004	-49.90657900000000	0.09448200000000	0.00000000000000	-0.07718000000000	0.00000000000000	-10.85036100000000	0.00000000000000	0.00000000000000	-16.04513500000000	0.00000000000000	
14.90994500000000	0.46069100000000	139.59250900000001	-14.40740600000000	0.32394100000000	0.00000000000000	0.10881800000000	-49.04138600000000	736.00770699999998	-49.23857500000000	0.09393300000000	0.00000000000000	-0.07701000000000	0.00000000000000	-10.80401200000000	0.00000000000000	0.00000000000000	-15.94985900000000	0.00000000000000	
14.91160600000000	1.44182100000000	147.03445700000000	-13.96491500000000	0.32589200000000	0.00000000000000	0.10924000000000	-49.49695400000000	731.23198700000000	-48.54398100000000	0.09339400000000	0.00000000000000	-0.07683400000000	0.00000000000000	-10.73260400000000	0.00000000000000	0.00000000000000	-15.85405000000000	0.00000000000000	
14.91327700000000	2.46714100000000	154.65102899999999	-13.48193500000000	0.32774400000000	0.00000000000000	0.10964300000000	-49.95450700000000	726.30128600000000	-47.82352000000000	0.09286600000000	0.00000000000000	-0.07665300000000	0.00000000000000	-10.64254100000000	0.00000000000000	0.00000000000000	-15.75761800000000	0.00000000000000	
14.91494500000000	3.53235600000000	162.46236800000000	-12.96533600000000	0.32950300000000	0.00000000000000	0.11003000000000	-50.41282000000000	721.21425799999997	-47.07797500000000	0.09234900000000	0.00000000000000	-0.07646700000000	0.00000000000000	-10.53812300000000	0.00000000000000	0.00000000000000	-15.66046200000000	0.00000000000000	
14.91660800000000	4.63483700000000	170.47915200000000	-12.41883700000000	0.33117700000000	0.00000000000000	0.11040200000000	-50.87060400000000	715.96962900000005	-46.30818300000000	0.09184400000000	0.00000000000000	-0.07627600000000	0.00000000000000	-10.42163900000000	0.00000000000000	0.00000000000000	-15.56247200000000	0.00000000000000	
14.91827400000000	5.77336000000000	178.70313999999999	-11.84340000000000	0.33277000000000	0.00000000000000	0.11075900000000	-51.32651300000000	710.56620699999996	-45.51503500000000	0.09135100000000	0.00000000000000	-0.07607900000000	0.00000000000000	-10.29359100000000	0.00000000000000	0.00000000000000	-15.46352900000000	0.00000000000000	
14.91993900000000	6.94777700000000	187.12825300000000	-11.23775900000000	0.33428800000000	0.00000000000000	0.11110400000000	-51.77914300000000	705.00289199999997	-44.69947400000000	0.09087100000000	0.00000000000000	-0.07587700000000	0.00000000000000	-10.15300700000000	0.00000000000000	0.00000000000000	-15.36350500000000	0.00000000000000	
14.92160400000000	8.15866600000000	195.74198899999999	-10.59902000000000	0.33573300000000	0.00000000000000	0.11143700000000	-52.22703800000000	699.27869399999997	-43.86249200000000	0.09040400000000	0.00000000000000	-0.07567100000000	0.00000000000000	-9.99781800000000	0.00000000000000	0.00000000000000	-15.26226400000000	0.00000000000000	
14.92327700000000	9.40697800000000	204.52703399999999	-9.92327700000000	0.33710900000000	0.00000000000000	0.11175900000000	-52.66869400000000	693.39274499999999	-43.00513000000000	0.08995000000000	0.00000000000000	-0.07545900000000	0.00000000000000	-9.82524500000000	0.00000000000000	0.00000000000000	-15.15966300000000	0.00000000000000	
14.92494400000000	10.69372400000000	213.46288699999999	-9.20618400000000	0.33841900000000	0.00000000000000	0.11207000000000	-53.10256000000000	687.34431099999995	-42.12847100000000	0.08951000000000	0.00000000000000	-0.07524200000000	0.00000000000000	-9.63216800000000	0.00000000000000	0.00000000000000	-15.05555100000000	0.00000000000000	
14.92661200000000	12.01969600000000	222.52739900000000	-8.44347200000000	0.33966400000000	0.00000000000000	0.11237200000000	-53.52704600000000	681.13280899999995	-41.23363800000000	0.08908300000000	0.00000000000000	-0.07502000000000	0.00000000000000	-9.41546100000000	0.00000000000000	0.00000000000000	-14.94977200000000	0.00000000000000	
14.92827700000000	13.38526300000000	231.69811400000000	-7.63135600000000	0.34084600000000	0.00000000000000	0.11266500000000	-53.94052300000000	674.75781800000004	-40.32179700000000	0.08867100000000	0.00000000000000	-0.07479300000000	0.00000000000000	-9.17226300000000	0.00000000000000	0.00000000000000	-14.84216500000000	0.00000000000000	
14.92994300000000	14.79021900000000	240.95336800000001	-6.76684400000000	0.34196700000000	0.00000000000000	0.11294900000000	-54.34133200000000	668.21909000000005	-39.39414400000000	0.08827200000000	0.00000000000000	-0.07456100000000	0.00000000000000	-8.90018500000000	0.00000000000000	0.00000000000000	-14.73256300000000	0.00000000000000	
14.93160800000000	16.23369800000000	250.27309700000001	-5.84793200000000	0.34302800000000	0.00000000000000	0.11322600000000	-54.72778500000000	661.51656200000002	-38.45191300000000	0.08788800000000	0.00000000000000	-0.07432500000000	0.00000000000000	-8.59744900000000	0.00000000000000	0.00000000000000	-14.62079600000000	0.00000000000000	
14.93327700000000	17.71414700000000	259.63937099999998	-4.87370100000000	0.34402900000000	0.00000000000000	0.11349400000000	-55.09817200000000	654.65036399999997	-37.49636300000000	0.08751700000000	0.00000000000000	-0.07408400000000	0.00000000000000	-8.26295800000000	0.00000000000000	0.00000000000000	-14.50669100000000	0.00000000000000	
14.93494500000000	19.22934800000000	269.03665400000000	-3.84432100000000	0.34497200000000	0.00000000000000	0.11375600000000	-55.45076400000000	647.62083099999995	-36.52878300000000	0.08716100000000	0.00000000000000	-0.07383800000000	0.00000000000000	-7.89630800000000	0.00000000000000	0.00000000000000	-14.39007200000000	0.00000000000000	
14.93661300000000	20.77647500000000	278.45184300000000	-2.76098100000000	0.34585500000000	0.00000000000000	0.11401100000000	-55.78382000000000	640.42850099999998	-35.55048200000000	0.08681900000000	0.00000000000000	-0.07358900000000	0.00000000000000	-7.49775400000000	0.00000000000000	0.00000000000000	-14.27076400000000	0.00000000000000	
14.93827900000000	22.35218400000000	287.87411500000002	-1.62576800000000	0.34668100000000	0.00000000000000	0.11425900000000	-56.09559100000000	633.07412799999997	-34.56279400000000	0.08649000000000	0.00000000000000	-0.07333400000000	0.00000000000000	-7.06813500000000	0.00000000000000	0.00000000000000	-14.14859100000000	0.00000000000000	
14.93993900000000	23.95271300000000	297.29464400000001	-0.44151300000000	0.34744800000000	0.00000000000000	0.11450100000000	-56.38432800000000	625.55867999999998	-33.56706700000000	0.08617400000000	0.00000000000000	-0.07307600000000	0.00000000000000	-6.60878100000000	0.00000000000000	0.00000000000000	-14.02337700000000	0.00000000000000	
